<svg width="151" height="28" viewBox="0 0 151 28" fill="none" xmlns="http://www.w3.org/2000/svg">
    <path d="M24.4639 4.19735C21.7764 1.50983 18.1314 -1e-06 14.3306 0C10.5299 0 6.88486 1.50983 4.19735 4.19735C1.50983 6.88486 -1.20812e-07 10.5299 0 14.3307C1.20812e-07 18.1314 1.50983 21.7764 4.19735 24.464L14.3306 14.3307L24.4639 4.19735Z" fill="#7EB2FF"/>
    <path d="M16.1943 16.1953H24.8084V24.8094H16.1943V16.1953Z" fill="#161C27"/>
    <g filter="url(#filter0_i_101_38)">
        <path d="M22.3964 14.1289C22.3964 18.696 18.694 22.3984 14.1269 22.3984C9.5598 22.3984 5.85742 18.696 5.85742 14.1289C5.85742 9.56175 9.5598 5.85937 14.1269 5.85937C18.694 5.85937 22.3964 9.56175 22.3964 14.1289Z" fill="#354655" fill-opacity="0.04"/>
    </g>
    <path d="M33.4538 5.27273H37.8153L42.4219 16.5114H42.6179L47.2244 5.27273H51.5859V22H48.1555V11.1126H48.0167L43.6879 21.9183H41.3519L37.0231 11.0717H36.8842V22H33.4538V5.27273ZM56.5825 26.7045C56.1414 26.7045 55.7276 26.6692 55.341 26.5984C54.9598 26.533 54.644 26.4486 54.3936 26.3452L55.1776 23.7479C55.586 23.8731 55.9536 23.9412 56.2803 23.9521C56.6124 23.9629 56.8983 23.8867 57.1379 23.7234C57.3829 23.56 57.5816 23.2823 57.7341 22.8903L57.9383 22.3594L53.4379 9.45455H57.097L59.6943 18.6676H59.825L62.4468 9.45455H66.1304L61.2544 23.3558C61.0202 24.031 60.7017 24.6191 60.2987 25.12C59.9012 25.6264 59.3976 26.0157 58.7877 26.288C58.1779 26.5657 57.4428 26.7045 56.5825 26.7045ZM66.5531 8.18856V5.27273H80.291V8.18856H75.1699V22H71.6742V8.18856H66.5531ZM86.3861 22.245C85.0956 22.245 83.9848 21.9837 83.0537 21.4609C82.128 20.9328 81.4147 20.1868 80.9138 19.223C80.4128 18.2538 80.1624 17.1076 80.1624 15.7844C80.1624 14.494 80.4128 13.3614 80.9138 12.3867C81.4147 11.4121 82.1199 10.6525 83.0292 10.108C83.944 9.56345 85.0167 9.29119 86.2472 9.29119C87.0749 9.29119 87.8454 9.4246 88.5587 9.69141C89.2774 9.95277 89.9036 10.3475 90.4372 10.8757C90.9763 11.4039 91.3956 12.0682 91.695 12.8686C91.9945 13.6636 92.1443 14.5947 92.1443 15.6619V16.6175H81.5509V14.4613H88.8691C88.8691 13.9603 88.7602 13.5166 88.5423 13.13C88.3245 12.7434 88.0223 12.4412 87.6357 12.2234C87.2546 12.0001 86.8108 11.8885 86.3044 11.8885C85.7762 11.8885 85.308 12.011 84.8996 12.256C84.4967 12.4956 84.1808 12.8196 83.9521 13.228C83.7235 13.6309 83.6064 14.0801 83.6009 14.5756V16.6257C83.6009 17.2464 83.7153 17.7828 83.944 18.2347C84.1781 18.6867 84.5075 19.0352 84.9323 19.2802C85.357 19.5252 85.8606 19.6477 86.4433 19.6477C86.8299 19.6477 87.1838 19.5933 87.5051 19.4844C87.8263 19.3755 88.1013 19.2121 88.33 18.9943C88.5587 18.7765 88.7329 18.5097 88.8527 18.1939L92.0708 18.4062C91.9074 19.1795 91.5725 19.8546 91.0661 20.4318C90.5652 21.0036 89.9172 21.45 89.1222 21.7713C88.3327 22.0871 87.4207 22.245 86.3861 22.245ZM104.853 13.032L101.668 13.228C101.613 12.9557 101.496 12.7107 101.316 12.4929C101.137 12.2696 100.9 12.0927 100.606 11.962C100.317 11.8259 99.9716 11.7578 99.5686 11.7578C99.0296 11.7578 98.5749 11.8722 98.2046 12.1009C97.8344 12.3241 97.6492 12.6236 97.6492 12.9993C97.6492 13.2988 97.769 13.552 98.0086 13.7589C98.2482 13.9658 98.6593 14.1319 99.2419 14.2571L101.513 14.7145C102.732 14.965 103.642 15.3679 104.241 15.9233C104.839 16.4787 105.139 17.2083 105.139 18.1122C105.139 18.9344 104.897 19.6559 104.412 20.2766C103.933 20.8974 103.274 21.382 102.435 21.7305C101.602 22.0735 100.641 22.245 99.5523 22.245C97.8915 22.245 96.5684 21.8993 95.5828 21.2077C94.6027 20.5108 94.0283 19.5633 93.8595 18.3654L97.2817 18.1857C97.3852 18.6921 97.6356 19.0787 98.0331 19.3455C98.4306 19.6069 98.9397 19.7376 99.5605 19.7376C100.17 19.7376 100.66 19.6205 101.031 19.3864C101.406 19.1468 101.597 18.8391 101.602 18.4634C101.597 18.1476 101.464 17.889 101.202 17.6875C100.941 17.4806 100.538 17.3227 99.9933 17.2138L97.8208 16.7809C96.5956 16.5359 95.6836 16.1112 95.0846 15.5067C94.4911 14.9023 94.1943 14.1319 94.1943 13.1953C94.1943 12.3894 94.4121 11.6952 94.8477 11.1126C95.2888 10.5299 95.9068 10.0807 96.7018 9.76491C97.5022 9.4491 98.4388 9.29119 99.5115 9.29119C101.096 9.29119 102.343 9.62607 103.252 10.2958C104.167 10.9656 104.701 11.8776 104.853 13.032ZM114.003 9.45455V12.0682H106.448V9.45455H114.003ZM108.163 6.44886H111.642V18.1449C111.642 18.4661 111.691 18.7166 111.789 18.8963C111.887 19.0705 112.024 19.1931 112.198 19.2638C112.377 19.3346 112.584 19.37 112.819 19.37C112.982 19.37 113.145 19.3564 113.309 19.3292C113.472 19.2965 113.597 19.272 113.684 19.2557L114.232 21.8448C114.057 21.8993 113.812 21.9619 113.496 22.0327C113.181 22.1089 112.797 22.1552 112.345 22.1715C111.506 22.2042 110.771 22.0926 110.14 21.8366C109.513 21.5807 109.026 21.1832 108.678 20.6442C108.329 20.1051 108.158 19.4245 108.163 18.6023V6.44886ZM116.269 22V9.45455H119.749V22H116.269ZM118.017 7.83736C117.5 7.83736 117.056 7.66584 116.686 7.3228C116.321 6.97431 116.139 6.55776 116.139 6.07315C116.139 5.59399 116.321 5.18288 116.686 4.83984C117.056 4.49136 117.5 4.31712 118.017 4.31712C118.535 4.31712 118.976 4.49136 119.34 4.83984C119.711 5.18288 119.896 5.59399 119.896 6.07315C119.896 6.55776 119.711 6.97431 119.34 7.3228C118.976 7.66584 118.535 7.83736 118.017 7.83736ZM126.015 14.7472V22H122.536V9.45455H125.852V11.668H125.999C126.277 10.9383 126.742 10.3611 127.396 9.93643C128.049 9.50627 128.841 9.29119 129.772 9.29119C130.644 9.29119 131.403 9.48177 132.051 9.86293C132.699 10.2441 133.203 10.7886 133.562 11.4964C133.922 12.1989 134.101 13.0374 134.101 14.0121V22H130.622V14.6328C130.627 13.8651 130.431 13.2661 130.034 12.8359C129.636 12.4003 129.089 12.1825 128.392 12.1825C127.924 12.1825 127.51 12.2833 127.151 12.4847C126.797 12.6862 126.519 12.9802 126.318 13.3668C126.122 13.748 126.021 14.2081 126.015 14.7472ZM142.496 26.9659C141.368 26.9659 140.402 26.8107 139.596 26.5004C138.796 26.1954 138.159 25.7789 137.685 25.2507C137.211 24.7225 136.903 24.129 136.762 23.4702L139.98 23.0373C140.078 23.2878 140.233 23.5219 140.445 23.7397C140.658 23.9575 140.938 24.1317 141.287 24.2624C141.641 24.3986 142.071 24.4666 142.577 24.4666C143.334 24.4666 143.958 24.2815 144.448 23.9112C144.943 23.5464 145.191 22.9338 145.191 22.0735V19.7784H145.044C144.891 20.1269 144.663 20.4563 144.358 20.7667C144.053 21.0771 143.661 21.3303 143.182 21.5263C142.702 21.7223 142.131 21.8203 141.466 21.8203C140.524 21.8203 139.667 21.6025 138.894 21.1669C138.126 20.7259 137.513 20.0534 137.056 19.1495C136.604 18.2402 136.378 17.0913 136.378 15.7028C136.378 14.2816 136.609 13.0946 137.072 12.1417C137.535 11.1888 138.15 10.4755 138.918 10.0018C139.691 9.52805 140.538 9.29119 141.458 9.29119C142.161 9.29119 142.749 9.41098 143.222 9.65057C143.696 9.88471 144.077 10.1787 144.366 10.5327C144.66 10.8812 144.886 11.2242 145.044 11.5618H145.175V9.45455H148.629V22.1225C148.629 23.1897 148.368 24.0827 147.845 24.8015C147.323 25.5202 146.598 26.0593 145.673 26.4187C144.753 26.7835 143.693 26.9659 142.496 26.9659ZM142.569 19.2067C143.13 19.2067 143.604 19.0678 143.99 18.7901C144.382 18.507 144.682 18.104 144.889 17.5813C145.101 17.0531 145.207 16.4215 145.207 15.6864C145.207 14.9513 145.104 14.3143 144.897 13.7752C144.69 13.2307 144.39 12.8087 143.998 12.5092C143.606 12.2098 143.13 12.06 142.569 12.06C141.997 12.06 141.515 12.2152 141.123 12.5256C140.731 12.8305 140.435 13.2552 140.233 13.7997C140.032 14.3442 139.931 14.9731 139.931 15.6864C139.931 16.4106 140.032 17.0368 140.233 17.565C140.44 18.0877 140.737 18.4934 141.123 18.782C141.515 19.0651 141.997 19.2067 142.569 19.2067Z" fill="#354655"/>
    <defs>
        <filter id="filter0_i_101_38" x="5.85742" y="5.85937" width="16.8835" height="16.8836" filterUnits="userSpaceOnUse" color-interpolation-filters="sRGB">
            <feFlood flood-opacity="0" result="BackgroundImageFix"/>
            <feBlend mode="normal" in="SourceGraphic" in2="BackgroundImageFix" result="shape"/>
            <feColorMatrix in="SourceAlpha" type="matrix" values="0 0 0 0 0 0 0 0 0 0 0 0 0 0 0 0 0 0 127 0" result="hardAlpha"/>
            <feOffset dx="0.344563" dy="0.344563"/>
            <feGaussianBlur stdDeviation="0.344563"/>
            <feComposite in2="hardAlpha" operator="arithmetic" k2="-1" k3="1"/>
            <feColorMatrix type="matrix" values="0 0 0 0 1 0 0 0 0 1 0 0 0 0 1 0 0 0 0.5 0"/>
            <feBlend mode="normal" in2="shape" result="effect1_innerShadow_101_38"/>
        </filter>
    </defs>
</svg>
